<svg width="45" height="45" viewBox="0 0 45 45" fill="none" xmlns="http://www.w3.org/2000/svg">
<path d="M35.7705 5.69385H9.64551C8.37027 5.69748 7.1483 6.20567 6.24656 7.1074C5.34483 8.00914 4.83664 9.23111 4.83301 10.5063V27.0063C4.83664 28.2816 5.34483 29.5036 6.24656 30.4053C7.1483 31.307 8.37027 31.8152 9.64551 31.8188H13.083V38.6938L21.1371 31.9787C21.2607 31.8754 21.4168 31.8188 21.5779 31.8188H35.7705C37.0457 31.8152 38.2677 31.307 39.1695 30.4053C40.0712 29.5036 40.5794 28.2816 40.583 27.0063V10.5063C40.5794 9.23111 40.0712 8.00914 39.1695 7.1074C38.2677 6.20567 37.0457 5.69748 35.7705 5.69385Z" stroke="#878F86" stroke-width="2.75" stroke-linejoin="round"/>
<path d="M14.458 21.5063C15.9768 21.5063 17.208 20.2751 17.208 18.7563C17.208 17.2376 15.9768 16.0063 14.458 16.0063C12.9392 16.0063 11.708 17.2376 11.708 18.7563C11.708 20.2751 12.9392 21.5063 14.458 21.5063Z" fill="#878F86"/>
<path d="M22.708 21.5063C24.2268 21.5063 25.458 20.2751 25.458 18.7563C25.458 17.2376 24.2268 16.0063 22.708 16.0063C21.1892 16.0063 19.958 17.2376 19.958 18.7563C19.958 20.2751 21.1892 21.5063 22.708 21.5063Z" fill="#878F86"/>
<path d="M30.958 21.5063C32.4768 21.5063 33.708 20.2751 33.708 18.7563C33.708 17.2376 32.4768 16.0063 30.958 16.0063C29.4392 16.0063 28.208 17.2376 28.208 18.7563C28.208 20.2751 29.4392 21.5063 30.958 21.5063Z" fill="#878F86"/>
</svg>
