<svg width="45" height="45" viewBox="0 0 45 45" fill="none" xmlns="http://www.w3.org/2000/svg">
<path d="M22.8945 6.19385C19.73 6.19385 16.6366 7.13223 14.0054 8.89033C11.3742 10.6484 9.32347 13.1473 8.11247 16.0709C6.90146 18.9945 6.58461 22.2116 7.20197 25.3153C7.81934 28.419 9.34319 31.2699 11.5808 33.5076C13.8185 35.7452 16.6694 37.269 19.7731 37.8864C22.8768 38.5038 26.0939 38.1869 29.0175 36.9759C31.9411 35.7649 34.4399 33.7142 36.198 31.083C37.9562 28.4518 38.8945 25.3583 38.8945 22.1938C38.8945 17.9504 37.2088 13.8807 34.2082 10.8801C31.2077 7.87956 27.138 6.19385 22.8945 6.19385Z" stroke="#878F86" stroke-width="2.75" stroke-miterlimit="10"/>
<path d="M18.082 17.5783C18.082 17.5783 18.1542 16.0744 19.7638 14.7793C20.7186 14.0102 21.8633 13.7876 22.8945 13.7721C23.8338 13.7601 24.6726 13.9157 25.1745 14.1546C26.0338 14.5636 27.707 15.5622 27.707 17.6857C27.707 19.9201 26.2461 20.935 24.5815 22.0514C22.9169 23.1677 22.4648 24.3794 22.4648 25.6315" stroke="#878F86" stroke-width="2.40625" stroke-miterlimit="10" stroke-linecap="round"/>
<path d="M22.3789 31.8188C23.3281 31.8188 24.0977 31.0493 24.0977 30.1001C24.0977 29.1509 23.3281 28.3813 22.3789 28.3813C21.4297 28.3813 20.6602 29.1509 20.6602 30.1001C20.6602 31.0493 21.4297 31.8188 22.3789 31.8188Z" fill="#878F86"/>
</svg>
