<svg width="45" height="45" viewBox="0 0 45 45" fill="none" xmlns="http://www.w3.org/2000/svg">
<path d="M22.5244 40.0688C32.3965 40.0688 40.3994 32.0659 40.3994 22.1938C40.3994 12.3218 32.3965 4.31885 22.5244 4.31885C12.6523 4.31885 4.64941 12.3218 4.64941 22.1938C4.64941 32.0659 12.6523 40.0688 22.5244 40.0688Z" stroke="#878F86" stroke-width="2.75" stroke-linecap="round" stroke-linejoin="round"/>
<path d="M22.5244 29.0688C26.3214 29.0688 29.3994 25.9908 29.3994 22.1938C29.3994 18.3969 26.3214 15.3188 22.5244 15.3188C18.7275 15.3188 15.6494 18.3969 15.6494 22.1938C15.6494 25.9908 18.7275 29.0688 22.5244 29.0688Z" stroke="#878F86" stroke-width="2.75" stroke-linecap="round" stroke-linejoin="round"/>
<path d="M18.3994 4.83447L19.0869 16.1782M25.9619 16.1782L26.6494 4.83447M18.3994 39.5532L19.0869 28.2095M25.9619 28.2095L26.6494 39.5532M39.8838 18.0688L28.54 18.7563M28.54 25.6313L39.8838 26.3188M5.16504 18.0688L16.5088 18.7563M16.5088 25.6313L5.16504 26.3188" stroke="#878F86" stroke-width="2.75" stroke-linecap="round" stroke-linejoin="round"/>
</svg>
