<svg width="45" height="45" viewBox="0 0 45 45" fill="none" xmlns="http://www.w3.org/2000/svg">
<path d="M22.5239 5.68457C14.3597 5.68457 7.74121 12.303 7.74121 20.4673V22.8526C6.55207 23.3803 5.72266 24.5713 5.72266 25.9561V31.2495C5.72266 33.1237 7.242 34.6431 9.11621 34.6431V34.6399C9.8756 34.6399 10.4912 34.0243 10.4912 33.2649V20.4673C10.4912 13.8218 15.8784 8.43457 22.5239 8.43457C29.1694 8.43457 34.5566 13.8218 34.5566 20.4673V35.2257C34.5566 35.6272 34.2312 35.9526 33.8297 35.9526H20.7633C20.0039 35.9526 19.3883 36.5682 19.3883 37.3276C19.3883 38.087 20.0039 38.7026 20.7633 38.7026H33.8297C35.75 38.7026 37.3066 37.146 37.3066 35.2257V34.1327C38.4958 33.6051 39.3252 32.4141 39.3252 31.0293V25.7358C39.3252 24.3511 38.4958 23.16 37.3066 22.6324V20.4673C37.3066 12.303 30.6882 5.68457 22.5239 5.68457Z" fill="#878F86"/>
<path d="M12.5303 22.9848V20.8354C12.5303 15.3161 17.0046 10.8418 22.5239 10.8418C28.0433 10.8418 32.5176 15.3161 32.5176 20.8354C27.6818 19.94 23.7536 17.7442 20.6029 12.2464C18.751 19.4996 14.4495 22.4275 12.5303 22.9848Z" fill="#878F86"/>
<path d="M19.4722 24.0164C19.4722 25.0625 18.6241 25.9106 17.5779 25.9106C16.5317 25.9106 15.6836 25.0625 15.6836 24.0164C15.6836 22.9702 16.5317 22.1221 17.5779 22.1221C18.6241 22.1221 19.4722 22.9702 19.4722 24.0164Z" fill="#878F86"/>
<path d="M27.6736 25.9106C28.7198 25.9106 29.5679 25.0625 29.5679 24.0164C29.5679 22.9702 28.7198 22.1221 27.6736 22.1221C26.6274 22.1221 25.7793 22.9702 25.7793 24.0164C25.7793 25.0625 26.6274 25.9106 27.6736 25.9106Z" fill="#878F86"/>
</svg>
