<svg width="45" height="45" viewBox="0 0 45 45" fill="none" xmlns="http://www.w3.org/2000/svg">
<path d="M24.9316 17.5635C24.9316 17.5635 25.9784 17.0479 22.1816 17.0479C20.8219 17.0479 19.4927 17.4511 18.3621 18.2065C17.2315 18.9619 16.3503 20.0357 15.83 21.2919C15.3096 22.5481 15.1735 23.9305 15.4387 25.2641C15.704 26.5977 16.3588 27.8227 17.3203 28.7842C18.2818 29.7457 19.5068 30.4005 20.8404 30.6658C22.174 30.931 23.5564 30.7949 24.8126 30.2745C26.0688 29.7542 27.1426 28.873 27.898 27.7424C28.6534 26.6118 29.0566 25.2826 29.0566 23.9229" stroke="#878F86" stroke-width="2.40625" stroke-miterlimit="10" stroke-linecap="round"/>
<path d="M22.1816 13.7822L25.6191 17.2197L22.1816 20.6572" stroke="#878F86" stroke-width="2.40625" stroke-linecap="round" stroke-linejoin="round"/>
<path d="M22.1816 6.47754C13.0723 6.47754 5.68164 13.8682 5.68164 22.9775C5.68164 32.0869 13.0723 39.4775 22.1816 39.4775C31.291 39.4775 38.6816 32.0869 38.6816 22.9775C38.6816 13.8682 31.291 6.47754 22.1816 6.47754Z" stroke="#878F86" stroke-width="2.75" stroke-miterlimit="10"/>
</svg>
