<svg width="45" height="45" viewBox="0 0 45 45" fill="none" xmlns="http://www.w3.org/2000/svg">
<path d="M29.0422 17.5541L30.3237 17.6492L30.3237 17.6491L29.0422 17.5541ZM21.404 17.5541L20.1224 17.6474L20.1224 17.6475L21.404 17.5541ZM16.9068 30.5131L18.1714 30.7413L18.1714 30.7412L16.9068 30.5131ZM33.5413 30.5131L34.8059 30.285L34.8059 30.2849L33.5413 30.5131ZM7.94642 14.6011C7.94642 15.3108 8.52174 15.8861 9.23142 15.8861C9.94111 15.8861 10.5164 15.3108 10.5164 14.6011H7.94642ZM10.5164 30.6011C10.5164 29.8914 9.94111 29.3161 9.23142 29.3161C8.52174 29.3161 7.94642 29.8914 7.94642 30.6011H10.5164ZM6.03029 17.3873C5.32061 17.3873 4.74529 17.9627 4.74529 18.6723C4.74529 19.382 5.32061 19.9573 6.03029 19.9573V17.3873ZM12.9641 19.9573C13.6738 19.9573 14.2491 19.382 14.2491 18.6723C14.2491 17.9627 13.6738 17.3873 12.9641 17.3873V19.9573ZM5.88086 21.3838C5.17117 21.3838 4.59586 21.9591 4.59586 22.6688C4.59586 23.3785 5.17117 23.9538 5.88086 23.9538V21.3838ZM12.8147 23.9538C13.5244 23.9538 14.0997 23.3785 14.0997 22.6688C14.0997 21.9591 13.5244 21.3838 12.8147 21.3838V23.9538ZM6.03029 25.3373C5.32061 25.3373 4.74529 25.9126 4.74529 26.6223C4.74529 27.332 5.32061 27.9073 6.03029 27.9073V25.3373ZM12.9641 27.9073C13.6738 27.9073 14.2491 27.332 14.2491 26.6223C14.2491 25.9126 13.6738 25.3373 12.9641 25.3373V27.9073ZM27.7608 17.4591C27.6263 19.2728 26.2846 20.4355 25.2231 20.4355V23.0055C27.9807 23.0055 30.1179 20.4245 30.3237 17.6492L27.7608 17.4591ZM25.2231 20.4355C24.1603 20.4355 22.8174 19.2719 22.6856 17.4608L20.1224 17.6475C20.3247 20.4263 22.4668 23.0055 25.2231 23.0055V20.4355ZM22.6856 17.4609C22.5658 15.8145 23.6733 14.6728 25.2231 14.6728V12.1028C22.1726 12.1028 19.8949 14.5199 20.1224 17.6474L22.6856 17.4609ZM25.2231 14.6728C26.7648 14.6728 27.88 15.8493 27.7607 17.4592L30.3237 17.6491C30.5517 14.5718 28.2817 12.1028 25.2231 12.1028V14.6728ZM25.2239 23.213C21.0833 23.213 16.5018 25.5192 15.6423 30.2851L18.1714 30.7412C18.7302 27.6431 21.813 25.783 25.2239 25.783V23.213ZM15.6423 30.285C15.547 30.813 15.636 31.3964 15.9677 31.881C16.3192 32.3945 16.9022 32.7269 17.5856 32.7269V30.1569C17.6628 30.1569 17.7626 30.1759 17.8643 30.2303C17.9642 30.2837 18.0388 30.3568 18.0886 30.4294C18.1835 30.5682 18.1812 30.6872 18.1714 30.7413L15.6423 30.285ZM17.5856 32.7269H32.8621V30.1569H17.5856V32.7269ZM32.8621 32.7269C33.5453 32.7269 34.1285 32.3949 34.4802 31.8812C34.8122 31.3965 34.9012 30.813 34.8059 30.285L32.2767 30.7413C32.267 30.6872 32.2646 30.5681 32.3597 30.4292C32.4095 30.3565 32.4841 30.2835 32.584 30.2301C32.6856 30.1758 32.7852 30.1569 32.8621 30.1569V32.7269ZM34.8059 30.2849C33.9459 25.5193 29.3645 23.213 25.2239 23.213V25.783C28.6347 25.783 31.7176 27.6431 32.2768 30.7413L34.8059 30.2849ZM13.252 7.88607H35.5156V5.31607H13.252V7.88607ZM38.2512 10.6217V34.5805H40.8212V10.6217H38.2512ZM35.5156 37.3161H13.252V39.8861H35.5156V37.3161ZM10.5164 14.6011V10.6217H7.94642V14.6011H10.5164ZM10.5164 34.5805V30.6011H7.94642V34.5805H10.5164ZM6.03029 19.9573H12.9641V17.3873H6.03029V19.9573ZM5.88086 23.9538H12.8147V21.3838H5.88086V23.9538ZM6.03029 27.9073H12.9641V25.3373H6.03029V27.9073ZM13.252 37.3161C11.7412 37.3161 10.5164 36.0913 10.5164 34.5805H7.94642C7.94642 37.5107 10.3218 39.8861 13.252 39.8861V37.3161ZM38.2512 34.5805C38.2512 36.0913 37.0264 37.3161 35.5156 37.3161V39.8861C38.4458 39.8861 40.8212 37.5107 40.8212 34.5805H38.2512ZM35.5156 7.88607C37.0264 7.88607 38.2512 9.11085 38.2512 10.6217H40.8212C40.8212 7.69148 38.4458 5.31607 35.5156 5.31607V7.88607ZM13.252 5.31607C10.3218 5.31607 7.94642 7.69148 7.94642 10.6217H10.5164C10.5164 9.11085 11.7412 7.88607 13.252 7.88607V5.31607Z" fill="#878F86"/>
</svg>
