<svg width="45" height="45" viewBox="0 0 45 45" fill="none" xmlns="http://www.w3.org/2000/svg">
<path d="M31.9837 13.1478C31.2688 12.4327 30.8502 11.474 30.8116 10.4635C30.773 9.45303 31.1174 8.46524 31.7757 7.69768C31.8302 7.63385 31.8585 7.55179 31.855 7.46796C31.8515 7.38413 31.8164 7.30472 31.7568 7.24565L27.9644 3.44893C27.9017 3.38627 27.8167 3.35107 27.7281 3.35107C27.6394 3.35107 27.5544 3.38627 27.4917 3.44893L21.4469 9.49378C21.2238 9.71675 21.0558 9.98863 20.9562 10.2878C20.8569 10.5877 20.6891 10.8604 20.4661 11.0841C20.2431 11.3079 19.971 11.4766 19.6714 11.5769C19.372 11.6767 19.0999 11.8447 18.8765 12.0676L3.37423 27.5664C3.31157 27.6291 3.27637 27.7141 3.27637 27.8028C3.27637 27.8914 3.31157 27.9764 3.37423 28.0391L7.16665 31.8315C7.22571 31.8911 7.30512 31.9262 7.38895 31.9297C7.47278 31.9332 7.55484 31.9049 7.61868 31.8504C8.38607 31.1914 9.37408 30.8465 10.3849 30.8848C11.3957 30.9231 12.3548 31.3419 13.0701 32.0571C13.7854 32.7724 14.2041 33.7315 14.2424 34.7423C14.2807 35.7531 13.9359 36.7411 13.2768 37.5085C13.2224 37.5724 13.194 37.6544 13.1976 37.7383C13.2011 37.8221 13.2361 37.9015 13.2957 37.9606L17.0881 41.753C17.1508 41.8157 17.2358 41.8509 17.3245 41.8509C17.4131 41.8509 17.4981 41.8157 17.5608 41.753L33.0639 26.2507C33.2869 26.0274 33.4548 25.7552 33.5546 25.4558C33.6539 25.1559 33.8217 24.8833 34.0447 24.6595C34.2677 24.4357 34.5398 24.267 34.8394 24.1667C35.1386 24.0671 35.4105 23.8991 35.6334 23.676L41.6783 17.6312C41.7409 17.5685 41.7761 17.4835 41.7761 17.3949C41.7761 17.3062 41.7409 17.2212 41.6783 17.1585L37.8859 13.3661C37.8268 13.3065 37.7474 13.2715 37.6636 13.268C37.5797 13.2645 37.4977 13.2928 37.4338 13.3472C36.6673 14.0067 35.6802 14.3525 34.6697 14.3155C33.6592 14.2786 32.6999 13.8615 31.9837 13.1478Z" stroke="#878F86" stroke-width="2.57405" stroke-miterlimit="10"/>
<path d="M22.0526 12.6698L20.6338 11.251M25.8356 16.4528L24.8894 15.5075M29.6186 20.2366L28.6732 19.2904M33.875 24.4922L32.4562 23.0734" stroke="#878F86" stroke-width="2.57405" stroke-miterlimit="10" stroke-linecap="round"/>
</svg>
