<svg width="60" height="61" viewBox="0 0 60 61" fill="none" xmlns="http://www.w3.org/2000/svg">
<rect y="0.496094" width="60" height="60" rx="30" fill="#77BA90"/>
<path d="M12.9399 41.0835C12.9399 40.0661 13.8354 39.2414 14.9399 39.2414H20.6305C21.735 39.2414 22.6305 40.0661 22.6305 41.0835V45.3425C22.6305 46.3598 21.735 47.1846 20.6305 47.1846H14.9399C13.8354 47.1846 12.9399 46.3598 12.9399 45.3425V41.0835Z" stroke="white" stroke-width="1.5"/>
<path d="M26.4806 34.307C26.4806 33.2896 27.376 32.4649 28.4806 32.4649H33.4797C34.5843 32.4649 35.4797 33.2896 35.4797 34.307V45.3425C35.4797 46.3598 34.5843 47.1846 33.4797 47.1846H28.4806C27.376 47.1846 26.4806 46.3598 26.4806 45.3425V34.307Z" stroke="white" stroke-width="1.5"/>
<path d="M39.3361 29.4993C39.3361 28.482 40.2316 27.6572 41.3361 27.6572H45.7496C46.8541 27.6572 47.7496 28.482 47.7496 29.4993V45.3425C47.7496 46.3598 46.8541 47.1846 45.7496 47.1846H41.3361C40.2316 47.1846 39.3361 46.3598 39.3361 45.3425V29.4993Z" stroke="white" stroke-width="1.5"/>
<path d="M17.7324 16.077C17.7355 15.7843 17.7003 15.519 18.0031 15.3711C18.3568 15.1982 18.6878 15.483 18.673 15.861C18.6698 15.9419 18.6698 16.0193 18.673 16.0934C18.6735 16.1033 18.6769 16.1127 18.683 16.1206C18.689 16.1284 18.6972 16.1342 18.7066 16.1372C19.3556 16.3433 19.7771 16.7758 19.9712 17.4347C20.0281 17.6287 20.0437 17.8126 20.0182 17.9864C19.9563 18.4074 19.3647 18.5013 19.1542 18.1233C19.0635 17.959 19.112 17.7719 19.0408 17.6029C18.8592 17.172 18.5446 16.9777 18.097 17.0199C17.23 17.1013 17.0124 18.3369 17.8364 18.6993C17.9528 18.7504 18.0762 18.7788 18.2066 18.7845C18.9881 18.8179 19.5429 19.18 19.871 19.8707C20.3523 20.8841 19.7458 22.0524 18.716 22.3647C18.6905 22.3725 18.6769 22.3897 18.6753 22.4163C18.6605 22.7043 18.7371 22.9915 18.4531 23.1746C18.1103 23.3953 17.7277 23.1112 17.7331 22.734C17.7342 22.6307 17.7345 22.5295 17.7339 22.4304C17.7339 22.4007 17.7198 22.3808 17.6917 22.3709C16.9477 22.1096 16.5126 21.5967 16.3864 20.8325C16.2518 20.0147 17.2581 19.9036 17.3161 20.6133C17.3541 21.0782 17.5871 21.3648 18.0149 21.4734C18.7418 21.6572 19.3475 20.8379 18.9782 20.1869C18.8123 19.8952 18.559 19.7421 18.2183 19.7275C17.417 19.6939 16.7033 19.2392 16.467 18.4551C16.1665 17.4621 16.6845 16.4534 17.6799 16.1466C17.7144 16.1362 17.7318 16.113 17.7324 16.077Z" fill="white"/>
<path d="M23.6841 19.2856C23.6841 18.5661 23.5424 17.8537 23.267 17.1889C22.9917 16.5242 22.5881 15.9202 22.0793 15.4114C21.5705 14.9026 20.9665 14.499 20.3018 14.2237C19.6371 13.9484 18.9246 13.8066 18.2051 13.8066C16.752 13.8066 15.3584 14.3839 14.3308 15.4114C13.3033 16.4389 12.7261 17.8325 12.7261 19.2856C12.7261 20.0052 12.8678 20.7176 13.1431 21.3824C13.4185 22.0471 13.8221 22.6511 14.3308 23.1599C14.8396 23.6687 15.4436 24.0722 16.1084 24.3476C16.7731 24.6229 17.4856 24.7646 18.2051 24.7646C18.9246 24.7646 19.6371 24.6229 20.3018 24.3476C20.9665 24.0722 21.5705 23.6687 22.0793 23.1599C22.5881 22.6511 22.9917 22.0471 23.267 21.3824C23.5424 20.7176 23.6841 20.0052 23.6841 19.2856Z" stroke="white" stroke-width="1.5"/>
<path d="M11.8299 32.8569C11.4869 33.0892 11.3972 33.5555 11.6295 33.8985C11.8618 34.2414 12.3282 34.3311 12.6711 34.0988L11.8299 32.8569ZM27.5653 23.1037L27.9859 23.7247L27.5653 23.1037ZM28.9236 23.3284L29.5218 22.8759L28.9236 23.3284ZM32.1282 27.5647L32.7264 27.1122L32.1282 27.5647ZM33.5013 27.7792L33.0696 27.1658L33.5013 27.7792ZM47.6537 17.3852L48.3951 17.4984C48.4265 17.2926 48.371 17.083 48.2418 16.9197C48.1125 16.7565 47.9213 16.6543 47.7137 16.6376L47.6537 17.3852ZM46.8652 22.5513L46.2771 23.0168C46.4624 23.2509 46.7688 23.3528 47.0573 23.2763C47.3458 23.1999 47.5615 22.9596 47.6066 22.6645L46.8652 22.5513ZM42.4445 16.9668L42.5045 16.2192C42.207 16.1953 41.9236 16.3501 41.783 16.6134C41.6423 16.8766 41.6712 17.1983 41.8564 17.4323L42.4445 16.9668ZM12.6711 34.0988L27.9859 23.7247L27.1447 22.4828L11.8299 32.8569L12.6711 34.0988ZM28.3255 23.7808L31.5301 28.0171L32.7264 27.1122L29.5218 22.8759L28.3255 23.7808ZM33.9329 28.3925L44.9595 20.633L44.0963 19.4063L33.0696 27.1658L33.9329 28.3925ZM31.5301 28.0171C32.099 28.7692 33.1616 28.9353 33.9329 28.3925L33.0696 27.1658C32.9595 27.2434 32.8077 27.2196 32.7264 27.1122L31.5301 28.0171ZM27.9859 23.7247C28.096 23.6501 28.2453 23.6748 28.3255 23.7808L29.5218 22.8759C28.9601 22.1334 27.9154 21.9607 27.1447 22.4828L27.9859 23.7247ZM46.9123 17.272L46.1238 22.4382L47.6066 22.6645L48.3951 17.4984L46.9123 17.272ZM47.4532 22.0858L43.0326 16.5013L41.8564 17.4323L46.2771 23.0168L47.4532 22.0858ZM42.3845 17.7144L47.5936 18.1328L47.7137 16.6376L42.5045 16.2192L42.3845 17.7144Z" fill="white"/>
</svg>
